<?xml version="1.0" encoding="utf-8"?>
<!-- Generator: Adobe Illustrator 24.2.3, SVG Export Plug-In . SVG Version: 6.00 Build 0)  -->
<svg version="1.1" id="Layer_1" xmlns="http://www.w3.org/2000/svg" xmlns:xlink="http://www.w3.org/1999/xlink" x="0px" y="0px"
	 viewBox="0 0 1500 1000" style="enable-background:new 0 0 1500 1000;" xml:space="preserve">
<style type="text/css">
	.st0{fill:#6C6C6C;}
	.st1{fill:url(#SVGID_1_);}
	.st2{fill:url(#SVGID_2_);}
	.st3{fill:url(#SVGID_3_);}
	.st4{fill:url(#SVGID_4_);}
	.st5{fill:url(#SVGID_5_);}
	.st6{fill:url(#SVGID_6_);}
	.st7{fill:url(#SVGID_7_);}
	.st8{fill:url(#SVGID_8_);}
	.st9{fill:url(#SVGID_9_);}
	.st10{fill:url(#SVGID_10_);}
	.st11{fill:url(#SVGID_11_);}
	.st12{fill:url(#SVGID_12_);}
	.st13{fill:url(#SVGID_13_);}
	.st14{fill:url(#SVGID_14_);}
	.st15{fill:url(#SVGID_15_);}
	.st16{fill:url(#SVGID_16_);}
	.st17{fill:url(#SVGID_17_);}
	.st18{fill:url(#SVGID_18_);}
	.st19{fill:url(#SVGID_19_);}
	.st20{fill:url(#SVGID_20_);}
	.st21{fill:url(#SVGID_21_);}
	.st22{fill:url(#SVGID_22_);}
	.st23{fill:url(#SVGID_23_);}
	.st24{fill:url(#SVGID_24_);}
	.st25{fill:url(#SVGID_25_);}
	.st26{fill:url(#SVGID_26_);}
	.st27{fill:url(#SVGID_27_);}
	.st28{fill:url(#SVGID_28_);}
	.st29{fill:url(#SVGID_29_);}
	.st30{fill:url(#SVGID_30_);}
	.st31{fill:url(#SVGID_31_);}
	.st32{fill:url(#SVGID_32_);}
	.st33{fill:url(#SVGID_33_);}
	.st34{fill:url(#SVGID_34_);}
	.st35{fill:url(#SVGID_35_);}
	.st36{fill:url(#SVGID_36_);}
	.st37{fill:url(#SVGID_37_);}
	.st38{fill:url(#SVGID_38_);}
	.st39{fill:url(#SVGID_39_);}
	.st40{fill:url(#SVGID_40_);}
	.st41{fill:url(#SVGID_41_);}
	.st42{fill:url(#SVGID_42_);}
	.st43{fill:url(#SVGID_43_);}
	.st44{fill:url(#SVGID_44_);}
	.st45{fill:url(#SVGID_45_);}
	.st46{fill:url(#SVGID_46_);}
	.st47{fill:url(#SVGID_47_);}
	.st48{fill:url(#SVGID_48_);}
	.st49{fill:url(#SVGID_49_);}
	.st50{fill:url(#SVGID_50_);}
	.st51{fill:url(#SVGID_51_);}
	.st52{fill:url(#SVGID_52_);}
	.st53{fill:url(#SVGID_53_);}
	.st54{fill:url(#SVGID_54_);}
	.st55{fill:url(#SVGID_55_);}
	.st56{fill:url(#SVGID_56_);}
	.st57{fill:url(#SVGID_57_);}
	.st58{fill:url(#SVGID_58_);}
	.st59{fill:url(#SVGID_59_);}
	.st60{fill:url(#SVGID_60_);}
	.st61{fill:url(#SVGID_61_);}
	.st62{fill:url(#SVGID_62_);}
	.st63{fill:url(#SVGID_63_);}
	.st64{fill:url(#SVGID_64_);}
	.st65{fill:url(#SVGID_65_);}
</style>
<rect width="1500" height="1000"/>
<g>
	<path class="st0" d="M422.15,634.07c0.57-2.17,2.89-3.16,4.45-4.55c3.02,2.92,6.05,5.84,8.95,8.89c-1,1.73-1.72,3.71-0.51,5.57
		c1.66,3.05,1.47,6.57-0.13,9.6c0.62,1.63,1.27,3.24,2.01,4.82c-5.13-4.56-9.72-9.69-14.71-14.39l0.01-0.17
		C422.5,640.58,421.95,637.32,422.15,634.07z"/>
</g>
<linearGradient id="SVGID_1_" gradientUnits="userSpaceOnUse" x1="945.05" y1="294.2824" x2="945.05" y2="577.8295">
	<stop  offset="0" style="stop-color:#616161"/>
	<stop  offset="0.5335" style="stop-color:#FCFCFC"/>
	<stop  offset="1" style="stop-color:#6F6F6F"/>
</linearGradient>
<path class="st1" d="M952.31,292.42c-5,3.3-9.72,7.02-14.37,10.78c-0.07,0.64-0.19,1.92-0.25,2.57c5.01-3.85,9.99-7.77,14.72-11.96
	L952.31,292.42z"/>
<linearGradient id="SVGID_2_" gradientUnits="userSpaceOnUse" x1="373.4366" y1="649.9364" x2="1152.3289" y2="649.9364">
	<stop  offset="0" style="stop-color:#616161"/>
	<stop  offset="0.5335" style="stop-color:#FCFCFC"/>
	<stop  offset="1" style="stop-color:#6F6F6F"/>
</linearGradient>
<path class="st2" d="M418.92,683.99c0-14.36-0.01-28.72,0-43.08c1.09,0.98,2.18,1.95,3.3,2.93c0.28-3.26-0.27-6.52-0.07-9.77
	c0.57-2.17,2.89-3.16,4.45-4.55c-4.51-4.57-9.1-9.06-13.62-13.62c-2.55-0.07-5.09-0.04-7.63,0.15c0.09,22.62,0.08,45.24,0.01,67.85
	C409.88,684.04,414.4,684.01,418.92,683.99z"/>
<linearGradient id="SVGID_3_" gradientUnits="userSpaceOnUse" x1="959.1349" y1="294.2824" x2="959.135" y2="577.8295">
	<stop  offset="0" style="stop-color:#616161"/>
	<stop  offset="0.5335" style="stop-color:#FCFCFC"/>
	<stop  offset="1" style="stop-color:#6F6F6F"/>
</linearGradient>
<path class="st3" d="M964.22,308.53c-0.04-0.65-0.14-1.94-0.18-2.58c-2.93-3.21-6.72-5.51-9.99-8.35c0.01,0.83,0.02,2.49,0.03,3.31
	C957.46,303.45,960.73,306.13,964.22,308.53z"/>
<linearGradient id="SVGID_4_" gradientUnits="userSpaceOnUse" x1="945.2628" y1="294.2824" x2="945.2628" y2="577.8295">
	<stop  offset="0" style="stop-color:#616161"/>
	<stop  offset="0.5335" style="stop-color:#FCFCFC"/>
	<stop  offset="1" style="stop-color:#6F6F6F"/>
</linearGradient>
<path class="st4" d="M953.02,299.18c-3.75,0.19-6.1,3.8-9.14,5.62c-2.32,2.23-6.53,3.38-6.37,7.21
	C942.91,308.08,948.47,304.09,953.02,299.18z"/>
<linearGradient id="SVGID_5_" gradientUnits="userSpaceOnUse" x1="834.6298" y1="294.2824" x2="834.6298" y2="577.8295">
	<stop  offset="0" style="stop-color:#616161"/>
	<stop  offset="0.5335" style="stop-color:#FCFCFC"/>
	<stop  offset="1" style="stop-color:#6F6F6F"/>
</linearGradient>
<path class="st5" d="M756.23,550.46c52.34-0.04,104.68,0.01,157.01-0.02c-0.01-4.12,0.03-8.23,0.01-12.34
	c0-2.93,0.01-5.85,0.02-8.77c-0.02-2.15-0.02-4.29-0.02-6.42c-0.01-3.52,0.01-7.04,0.02-10.55c-0.03-1.84-0.03-3.67-0.02-5.49
	c-38.75-0.01-77.51-0.01-116.27-0.01c-13.53,0.16-27.08-0.31-40.59,0.25l-0.16-0.67c-0.25,2.08-0.28,4.18-0.09,6.28
	c-0.24,7.01-0.17,14.05,0.05,21.07C755.86,539.34,756.23,544.9,756.23,550.46z"/>
<linearGradient id="SVGID_6_" gradientUnits="userSpaceOnUse" x1="959.025" y1="294.2824" x2="959.025" y2="577.8295">
	<stop  offset="0" style="stop-color:#616161"/>
	<stop  offset="0.5335" style="stop-color:#FCFCFC"/>
	<stop  offset="1" style="stop-color:#6F6F6F"/>
</linearGradient>
<path class="st6" d="M964.06,311.96c-2.95-3.23-6.77-5.57-10.13-8.37c-0.03,0.84-0.08,2.51-0.1,3.34c3.47,2.58,6.81,5.33,10.39,7.77
	C964.18,314.02,964.1,312.65,964.06,311.96z"/>
<linearGradient id="SVGID_7_" gradientUnits="userSpaceOnUse" x1="945.0627" y1="294.2824" x2="945.0627" y2="577.8295">
	<stop  offset="0" style="stop-color:#616161"/>
	<stop  offset="0.5335" style="stop-color:#FCFCFC"/>
	<stop  offset="1" style="stop-color:#6F6F6F"/>
</linearGradient>
<path class="st7" d="M939.19,317.29c4.47-3.72,9.27-7.09,13.42-11.16l-0.32-1.39c-4.69,3.49-9.41,6.96-13.92,10.67
	C936.82,316.34,937.55,318.92,939.19,317.29z"/>
<linearGradient id="SVGID_8_" gradientUnits="userSpaceOnUse" x1="960.855" y1="294.2824" x2="960.855" y2="577.8295">
	<stop  offset="0" style="stop-color:#616161"/>
	<stop  offset="0.5335" style="stop-color:#FCFCFC"/>
	<stop  offset="1" style="stop-color:#6F6F6F"/>
</linearGradient>
<path class="st8" d="M968.41,326.59c-0.01-0.93-0.04-2.78-0.05-3.71c-5-3.01-10.04-5.95-15.06-8.93c0.06,0.84,0.18,2.51,0.24,3.35
	C958.32,320.65,963.46,323.47,968.41,326.59z"/>
<linearGradient id="SVGID_9_" gradientUnits="userSpaceOnUse" x1="944.44" y1="294.2824" x2="944.44" y2="577.8295">
	<stop  offset="0" style="stop-color:#616161"/>
	<stop  offset="0.5335" style="stop-color:#FCFCFC"/>
	<stop  offset="1" style="stop-color:#6F6F6F"/>
</linearGradient>
<path class="st9" d="M952.06,316.11c-5.42,1.6-10.03,5.27-14.9,8.06c-0.09,0.63-0.25,1.9-0.34,2.54c3.78-2.17,7.44-4.55,11.19-6.78
	C949.57,318.92,951.54,318.1,952.06,316.11z"/>
<linearGradient id="SVGID_10_" gradientUnits="userSpaceOnUse" x1="960.9218" y1="294.2824" x2="960.9218" y2="577.8295">
	<stop  offset="0" style="stop-color:#616161"/>
	<stop  offset="0.5335" style="stop-color:#FCFCFC"/>
	<stop  offset="1" style="stop-color:#6F6F6F"/>
</linearGradient>
<path class="st10" d="M953.42,320.68c-0.02,1.63-0.02,3.26-0.01,4.89c5.02,3.05,9.99,6.18,15.03,9.2c-0.06-1.82-0.09-3.63-0.15-5.43
	C963.24,326.61,958.49,323.37,953.42,320.68z"/>
<linearGradient id="SVGID_11_" gradientUnits="userSpaceOnUse" x1="944.245" y1="294.2824" x2="944.245" y2="577.8295">
	<stop  offset="0" style="stop-color:#616161"/>
	<stop  offset="0.5335" style="stop-color:#FCFCFC"/>
	<stop  offset="1" style="stop-color:#6F6F6F"/>
</linearGradient>
<path class="st11" d="M936.88,334.42c4.92-3.02,10.02-5.8,14.68-9.2l0.05-1.88c-4.79,2.95-9.86,5.45-14.49,8.64
	C937.06,332.59,936.94,333.81,936.88,334.42z"/>
<linearGradient id="SVGID_12_" gradientUnits="userSpaceOnUse" x1="960.9" y1="294.2824" x2="960.9" y2="577.8295">
	<stop  offset="0" style="stop-color:#616161"/>
	<stop  offset="0.5335" style="stop-color:#FCFCFC"/>
	<stop  offset="1" style="stop-color:#6F6F6F"/>
</linearGradient>
<path class="st12" d="M953.42,328.79c-0.03,1.63-0.04,3.26-0.04,4.9c5.01,3.04,9.96,6.17,15,9.18c0-1.73,0.01-3.45,0.04-5.17
	C963.45,334.67,958.48,331.64,953.42,328.79z"/>
<linearGradient id="SVGID_13_" gradientUnits="userSpaceOnUse" x1="944.3199" y1="294.2824" x2="944.32" y2="577.8295">
	<stop  offset="0" style="stop-color:#616161"/>
	<stop  offset="0.5335" style="stop-color:#FCFCFC"/>
	<stop  offset="1" style="stop-color:#6F6F6F"/>
</linearGradient>
<path class="st13" d="M936.91,342.21c4.82-3.06,9.88-5.78,14.53-9.09l0.29-2.06c-4.89,2.72-9.63,5.69-14.56,8.33
	C937.11,340.1,936.97,341.51,936.91,342.21z"/>
<linearGradient id="SVGID_14_" gradientUnits="userSpaceOnUse" x1="373.4366" y1="649.9352" x2="1152.3289" y2="649.9352">
	<stop  offset="0" style="stop-color:#616161"/>
	<stop  offset="0.5335" style="stop-color:#FCFCFC"/>
	<stop  offset="1" style="stop-color:#6F6F6F"/>
</linearGradient>
<path class="st14" d="M513.62,671.74c8.46,0.01,16.92-0.03,25.37,0.08c2.13,3.84,3.7,7.98,5.42,12.03
	c5.02,0.31,10.05,0.09,15.07,0.15c-7.44-16.56-14.59-33.27-22.33-49.69c-2.26-6.27-5.44-12.28-8.01-18.46
	c-1.97,0.01-3.94,0.04-5.9,0.2c-1.18,3.01-2.67,5.89-3.77,8.94c-8.88,19.56-17.27,39.34-26.03,58.95c4.91,0.01,9.82,0.03,14.74,0.06
	C509.99,679.91,511.71,675.78,513.62,671.74z M526.29,642.89c2.27,5.11,4.56,10.22,6.8,15.35c-4.37,0-8.74,0.04-13.1-0.01
	c0.37-2.02,1.19-3.9,2.01-5.76C523.49,649.3,524.88,646.09,526.29,642.89z"/>
<linearGradient id="SVGID_15_" gradientUnits="userSpaceOnUse" x1="960.8912" y1="294.2824" x2="960.8913" y2="577.8295">
	<stop  offset="0" style="stop-color:#616161"/>
	<stop  offset="0.5335" style="stop-color:#FCFCFC"/>
	<stop  offset="1" style="stop-color:#6F6F6F"/>
</linearGradient>
<path class="st15" d="M953.39,341.82c4.99,3.07,9.98,6.17,15,9.19c-0.01-1.74-0.01-3.48,0.01-5.21c-5.01-2.97-9.96-6.05-15.01-8.94
	C953.38,338.51,953.38,340.16,953.39,341.82z"/>
<linearGradient id="SVGID_16_" gradientUnits="userSpaceOnUse" x1="944.485" y1="294.2824" x2="944.485" y2="577.8295">
	<stop  offset="0" style="stop-color:#616161"/>
	<stop  offset="0.5335" style="stop-color:#FCFCFC"/>
	<stop  offset="1" style="stop-color:#6F6F6F"/>
</linearGradient>
<path class="st16" d="M936.99,349.91c3.53-2.13,7.02-4.32,10.56-6.43c1.8-1.17,4.24-2.01,4.43-4.5c-5.26,2.25-9.93,5.63-14.97,8.31
	C937,347.95,936.99,349.25,936.99,349.91z"/>
<linearGradient id="SVGID_17_" gradientUnits="userSpaceOnUse" x1="960.865" y1="294.2824" x2="960.8651" y2="577.8295">
	<stop  offset="0" style="stop-color:#616161"/>
	<stop  offset="0.5335" style="stop-color:#FCFCFC"/>
	<stop  offset="1" style="stop-color:#6F6F6F"/>
</linearGradient>
<path class="st17" d="M968.4,359.16c-0.02-1.74-0.02-3.48-0.01-5.22c-4.97-3.03-10-5.96-14.97-8.99c-0.04,1.63-0.06,3.26-0.09,4.89
	C958.27,353.06,963.35,356.09,968.4,359.16z"/>
<linearGradient id="SVGID_18_" gradientUnits="userSpaceOnUse" x1="944.42" y1="294.2824" x2="944.42" y2="577.8295">
	<stop  offset="0" style="stop-color:#616161"/>
	<stop  offset="0.5335" style="stop-color:#FCFCFC"/>
	<stop  offset="1" style="stop-color:#6F6F6F"/>
</linearGradient>
<path class="st18" d="M937.13,355.14c-0.07,0.64-0.21,1.9-0.28,2.53c4.38-2.55,8.67-5.25,13.01-7.87c1.13-0.56,1.92-1.53,2.13-2.79
	C946.63,348.78,941.99,352.32,937.13,355.14z"/>
<linearGradient id="SVGID_19_" gradientUnits="userSpaceOnUse" x1="784.0052" y1="294.2824" x2="784.0052" y2="577.8295">
	<stop  offset="0" style="stop-color:#616161"/>
	<stop  offset="0.5335" style="stop-color:#FCFCFC"/>
	<stop  offset="1" style="stop-color:#6F6F6F"/>
</linearGradient>
<path class="st19" d="M756.29,372.41c-0.4,12.51-0.12,25.05-0.23,37.58c0.07,19.16-0.29,38.35,0.24,57.5
	c-0.47,9.23,0.01,18.53-0.12,27.79l-0.06,0.46c18.61-0.02,37.22-0.04,55.83,0.01c0.04-3.22,0.06-6.43,0.05-9.63
	c-0.04-6.69,0.02-13.37,0-20.06c-0.03-5.38,0.02-10.76-0.01-16.14c0-12.63,0.01-25.25,0-37.88c0.02-3.7-0.01-7.4,0.01-11.1
	c0.02-6.29-0.04-12.57-0.01-18.86c0.02-3.38-0.02-6.76,0.01-10.15c0.01-3.95-0.04-7.9-0.01-11.85c0.01-2.75-0.01-5.5,0.01-8.24
	c0.03-4.61-0.06-9.21-0.02-13.82c0.05-4.09-0.01-8.18-0.05-12.27c-18.58,0.02-37.16-0.01-55.74,0.02c0.04,9.19-0.49,18.4,0.08,27.58
	C756.02,359.69,755.89,366.07,756.29,372.41z"/>
<linearGradient id="SVGID_20_" gradientUnits="userSpaceOnUse" x1="960.92" y1="294.2824" x2="960.92" y2="577.8295">
	<stop  offset="0" style="stop-color:#616161"/>
	<stop  offset="0.5335" style="stop-color:#FCFCFC"/>
	<stop  offset="1" style="stop-color:#6F6F6F"/>
</linearGradient>
<path class="st20" d="M953.36,353.06c0.02,0.82,0.08,2.46,0.1,3.28c4.88,3.11,9.98,5.87,15.02,8.71c-0.05-0.74-0.16-2.2-0.21-2.93
	C963.42,358.9,958.28,356.15,953.36,353.06z"/>
<linearGradient id="SVGID_21_" gradientUnits="userSpaceOnUse" x1="944.3719" y1="294.2824" x2="944.3719" y2="577.8295">
	<stop  offset="0" style="stop-color:#616161"/>
	<stop  offset="0.5335" style="stop-color:#FCFCFC"/>
	<stop  offset="1" style="stop-color:#6F6F6F"/>
</linearGradient>
<path class="st21" d="M951.66,354.27c-4.81,2.95-9.85,5.53-14.54,8.65c-0.07,0.63-0.19,1.89-0.25,2.52
	c4.08-2.4,8.07-4.95,12.15-7.36C950.26,357.1,952.59,356.49,951.66,354.27z"/>
<linearGradient id="SVGID_22_" gradientUnits="userSpaceOnUse" x1="964.665" y1="294.2824" x2="964.665" y2="577.8295">
	<stop  offset="0" style="stop-color:#616161"/>
	<stop  offset="0.5335" style="stop-color:#FCFCFC"/>
	<stop  offset="1" style="stop-color:#6F6F6F"/>
</linearGradient>
<path class="st22" d="M953.37,365.66c7.53,3.96,15.03,7.99,22.59,11.88c-0.07-1.37-0.13-2.75-0.19-4.11
	c-7.52-4.06-14.91-8.34-22.36-12.52C953.39,362.49,953.38,364.07,953.37,365.66z"/>
<linearGradient id="SVGID_23_" gradientUnits="userSpaceOnUse" x1="940.455" y1="294.2824" x2="940.455" y2="577.8295">
	<stop  offset="0" style="stop-color:#616161"/>
	<stop  offset="0.5335" style="stop-color:#FCFCFC"/>
	<stop  offset="1" style="stop-color:#6F6F6F"/>
</linearGradient>
<path class="st23" d="M950.76,364.49c-6.83,2.99-13.6,6.1-20.44,9.05c-0.04,0.65-0.13,1.95-0.17,2.59
	c6.91-3.05,13.71-6.36,20.57-9.51C950.73,366.09,950.75,365.02,950.76,364.49z"/>
<linearGradient id="SVGID_24_" gradientUnits="userSpaceOnUse" x1="373.4366" y1="650.3867" x2="1152.3289" y2="650.3867">
	<stop  offset="0" style="stop-color:#616161"/>
	<stop  offset="0.5335" style="stop-color:#FCFCFC"/>
	<stop  offset="1" style="stop-color:#6F6F6F"/>
</linearGradient>
<path class="st24" d="M591.76,670.87c-6.32,0.88-12.57-1.98-16.7-6.7c-3.34,3.09-6.67,6.21-10.03,9.29
	c7.51,8.88,20.01,13.44,31.38,10.32c9.77-3.08,17.49-13.52,14.83-23.93c-1.85-8.41-10.13-12.85-17.51-15.71l0.08-0.08
	c-4.44-1.81-9.77-2.99-12.5-7.31c-1.6-2.82,1.14-5.17,3.34-6.45c5.88-2.04,12.13,0.16,16.88,3.79c2.71-3.53,5.52-6.98,8.29-10.46
	c-7.78-6.17-18.24-9.11-28.02-6.87c-5.31,1.72-10.26,5.26-12.59,10.46c-3.87,8.14-0.95,18.95,6.77,23.73
	c5.7,3.35,12.09,5.24,17.97,8.24c2.08,1.68,4.65,3.88,3.98,6.92C597.24,668.94,594.2,670.01,591.76,670.87z"/>
<linearGradient id="SVGID_25_" gradientUnits="userSpaceOnUse" x1="964.658" y1="294.2824" x2="964.658" y2="577.8295">
	<stop  offset="0" style="stop-color:#616161"/>
	<stop  offset="0.5335" style="stop-color:#FCFCFC"/>
	<stop  offset="1" style="stop-color:#6F6F6F"/>
</linearGradient>
<path class="st25" d="M953.4,370.13c-0.01,1.57,0,3.15,0.01,4.73c7.51,3.89,14.96,7.9,22.47,11.78c0-1.61,0.01-3.22,0.04-4.83
	C968.43,377.88,960.89,374.05,953.4,370.13z"/>
<linearGradient id="SVGID_26_" gradientUnits="userSpaceOnUse" x1="373.4366" y1="734.505" x2="1152.3289" y2="734.505">
	<stop  offset="0" style="stop-color:#616161"/>
	<stop  offset="0.5335" style="stop-color:#FCFCFC"/>
	<stop  offset="1" style="stop-color:#6F6F6F"/>
</linearGradient>
<path class="st26" d="M604.85,730.63c-7.71,0.18-15.41,0.45-23.11,0.62c-5.97,0.14-11.94,0.32-17.9,0.48
	c-4.22,0.07-8.43,0.23-12.64,0.32c-7.76,0.16-15.52,0.45-23.29,0.62c-8.65,0.18-17.3,0.55-25.96,0.69
	c-20.32,0.58-40.66,1-60.98,1.85c-10.69,0.2-21.37,0-32.06,0.26c8.35,0.43,16.74-0.11,25.07,0.77c23.47,0.25,46.95,0.78,70.42,1.05
	c6.13,0.03,12.27,0.3,18.4,0.21c9.11,0.17,18.23,0.42,27.35,0.37c4.84,0.23,9.71,0.19,14.56,0.26c6.01,0.11,12.01,0.23,18.02,0.25
	c3.65,0.05,7.31,0.26,10.97,0.07c13.14,0.41,26.29,0.37,39.44,0.71c-0.01-3.1-0.02-6.21-0.01-9.31
	C623.7,730.16,614.27,730.39,604.85,730.63z"/>
<linearGradient id="SVGID_27_" gradientUnits="userSpaceOnUse" x1="940.45" y1="294.2824" x2="940.45" y2="577.8295">
	<stop  offset="0" style="stop-color:#616161"/>
	<stop  offset="0.5335" style="stop-color:#FCFCFC"/>
	<stop  offset="1" style="stop-color:#6F6F6F"/>
</linearGradient>
<path class="st27" d="M930.18,384.9c6.88-3.04,13.62-6.38,20.49-9.44c0.01-0.56,0.04-1.68,0.05-2.24
	c-6.79,3.09-13.61,6.1-20.41,9.13C930.28,382.99,930.21,384.27,930.18,384.9z"/>
<linearGradient id="SVGID_28_" gradientUnits="userSpaceOnUse" x1="373.4366" y1="649.9342" x2="1152.3289" y2="649.9342">
	<stop  offset="0" style="stop-color:#616161"/>
	<stop  offset="0.5335" style="stop-color:#FCFCFC"/>
	<stop  offset="1" style="stop-color:#6F6F6F"/>
</linearGradient>
<path class="st28" d="M884.28,684c4.93,0,9.86-0.01,14.79,0c1.77-4.12,3.55-8.25,5.48-12.3c8.48,0.04,16.97,0.11,25.45-0.1
	c0.73,1.73,1.48,3.44,2.29,5.15c0.98,2.39,2.06,4.76,3.06,7.16c4.98,0.18,9.98,0.03,14.97,0.05c-5.06-11.25-9.92-22.59-15.11-33.78
	c-4.96-11.48-10.13-22.87-15.2-34.3c-1.95-0.01-3.88-0.02-5.81,0c-0.78,1.79-1.55,3.58-2.3,5.38
	C902.68,642.17,893.48,663.08,884.28,684z M917.25,643.06c2.22,5.06,4.49,10.11,6.74,15.17c-2.24,0-4.48,0.01-6.7,0.03
	c-2.32,0-4.63,0-6.93-0.01c1.72-3.91,3.48-7.81,5.17-11.74C916.06,645.33,916.67,644.2,917.25,643.06z"/>
<linearGradient id="SVGID_29_" gradientUnits="userSpaceOnUse" x1="964.6331" y1="294.2824" x2="964.6331" y2="577.8295">
	<stop  offset="0" style="stop-color:#616161"/>
	<stop  offset="0.5335" style="stop-color:#FCFCFC"/>
	<stop  offset="1" style="stop-color:#6F6F6F"/>
</linearGradient>
<path class="st29" d="M975.89,390.94c-7.48-3.93-15.01-7.75-22.49-11.67c-0.02,1.57-0.03,3.14-0.02,4.71
	c7.52,3.9,14.98,7.92,22.51,11.81C975.88,394.17,975.87,392.55,975.89,390.94z"/>
<linearGradient id="SVGID_30_" gradientUnits="userSpaceOnUse" x1="940.53" y1="294.2824" x2="940.53" y2="577.8295">
	<stop  offset="0" style="stop-color:#616161"/>
	<stop  offset="0.5335" style="stop-color:#FCFCFC"/>
	<stop  offset="1" style="stop-color:#6F6F6F"/>
</linearGradient>
<path class="st30" d="M930.23,393.66c6.83-3.1,13.59-6.34,20.42-9.45c0.04-0.54,0.13-1.64,0.18-2.18
	c-6.91,2.96-13.74,6.08-20.59,9.16C930.24,391.81,930.23,393.04,930.23,393.66z"/>
<linearGradient id="SVGID_31_" gradientUnits="userSpaceOnUse" x1="964.5967" y1="294.2824" x2="964.5967" y2="577.8295">
	<stop  offset="0" style="stop-color:#616161"/>
	<stop  offset="0.5335" style="stop-color:#FCFCFC"/>
	<stop  offset="1" style="stop-color:#6F6F6F"/>
</linearGradient>
<path class="st31" d="M953.36,466.26c7.5,3.94,14.99,7.86,22.48,11.81c-0.01-1.64-0.01-3.26,0-4.89
	c-7.52-3.83-14.97-7.78-22.47-11.64C953.35,463.11,953.35,464.69,953.36,466.26z"/>
<linearGradient id="SVGID_32_" gradientUnits="userSpaceOnUse" x1="373.4366" y1="735.5" x2="1152.3289" y2="735.5">
	<stop  offset="0" style="stop-color:#616161"/>
	<stop  offset="0.5335" style="stop-color:#FCFCFC"/>
	<stop  offset="1" style="stop-color:#6F6F6F"/>
</linearGradient>
<path class="st32" d="M652.01,712.13c-0.01,15.58-0.01,31.16,0,46.74c3.08,0,6.16,0,9.25,0.01c-0.02-15.59,0-31.18-0.01-46.76
	C658.16,712.12,655.08,712.12,652.01,712.13z"/>
<linearGradient id="SVGID_33_" gradientUnits="userSpaceOnUse" x1="964.65" y1="294.2824" x2="964.65" y2="577.8295">
	<stop  offset="0" style="stop-color:#616161"/>
	<stop  offset="0.5335" style="stop-color:#FCFCFC"/>
	<stop  offset="1" style="stop-color:#6F6F6F"/>
</linearGradient>
<path class="st33" d="M975.88,400.07c-7.49-3.9-15-7.75-22.48-11.65c-0.02,1.56-0.02,3.12-0.02,4.69
	c7.52,3.92,14.97,7.97,22.54,11.8C975.89,403.3,975.87,401.68,975.88,400.07z"/>
<linearGradient id="SVGID_34_" gradientUnits="userSpaceOnUse" x1="940.585" y1="294.2824" x2="940.585" y2="577.8295">
	<stop  offset="0" style="stop-color:#616161"/>
	<stop  offset="0.5335" style="stop-color:#FCFCFC"/>
	<stop  offset="1" style="stop-color:#6F6F6F"/>
</linearGradient>
<path class="st34" d="M930.28,402.42c6.75-3.2,13.65-6.13,20.28-9.57c0.11-0.49,0.32-1.46,0.42-1.95
	c-7.09,2.64-13.86,6.07-20.79,9.08C930.21,400.59,930.26,401.81,930.28,402.42z"/>
<linearGradient id="SVGID_35_" gradientUnits="userSpaceOnUse" x1="373.4366" y1="650.3064" x2="1152.3289" y2="650.3064">
	<stop  offset="0" style="stop-color:#616161"/>
	<stop  offset="0.5335" style="stop-color:#FCFCFC"/>
	<stop  offset="1" style="stop-color:#6F6F6F"/>
</linearGradient>
<path class="st35" d="M850.87,616.63c-4.5-0.01-9,0-13.49-0.02c-0.03,22.46,0,44.92-0.01,67.38c5.91,0.02,11.82-0.01,17.73,0.01
	c7.59,0.01,15.18-0.01,22.77-0.01c-0.02-4.5-0.02-9-0.01-13.49c-7.37,0.02-14.73,0-22.1-0.02c-1.61,0.01-3.2,0.03-4.79,0.06
	C850.74,652.57,850.93,634.6,850.87,616.63z"/>
<linearGradient id="SVGID_36_" gradientUnits="userSpaceOnUse" x1="964.6281" y1="294.2824" x2="964.6281" y2="577.8295">
	<stop  offset="0" style="stop-color:#616161"/>
	<stop  offset="0.5335" style="stop-color:#FCFCFC"/>
	<stop  offset="1" style="stop-color:#6F6F6F"/>
</linearGradient>
<path class="st36" d="M975.88,409.18c-7.51-3.83-14.98-7.75-22.48-11.6c-0.02,1.55-0.03,3.11-0.02,4.67
	c7.49,3.96,14.99,7.89,22.48,11.85C975.86,412.46,975.87,410.82,975.88,409.18z"/>
<linearGradient id="SVGID_37_" gradientUnits="userSpaceOnUse" x1="940.465" y1="294.2824" x2="940.465" y2="577.8295">
	<stop  offset="0" style="stop-color:#616161"/>
	<stop  offset="0.5335" style="stop-color:#FCFCFC"/>
	<stop  offset="1" style="stop-color:#6F6F6F"/>
</linearGradient>
<path class="st37" d="M950.75,401.69c-0.01-0.53-0.01-1.6-0.02-2.14c-6.82,2.99-13.57,6.12-20.41,9.07
	c-0.03,0.63-0.1,1.91-0.14,2.55C937.1,408.16,943.87,404.8,950.75,401.69z"/>
<linearGradient id="SVGID_38_" gradientUnits="userSpaceOnUse" x1="574.29" y1="294.2824" x2="574.29" y2="577.8295">
	<stop  offset="0" style="stop-color:#616161"/>
	<stop  offset="0.5335" style="stop-color:#FCFCFC"/>
	<stop  offset="1" style="stop-color:#6F6F6F"/>
</linearGradient>
<path class="st38" d="M508.5,465.74c-0.04,6.8,0.03,13.61-0.01,20.42c-0.03,3.94,0.04,7.88,0.01,11.83c-0.02,2.87,0,5.75,0,8.63
	c-0.02,2.83,0,5.68-0.01,8.52c-0.03,3.91,0.06,7.83,0.01,11.74c-0.03,3.77,0.04,7.54,0,11.32c-0.07,4.08,0.02,8.17,0.05,12.26
	c14.51-0.02,29.01,0.01,43.52-0.02c0.07-4.13,0.08-8.26,0.06-12.38c-0.01-4.06,0.01-8.12,0-12.18c-0.01-3.57,0-7.13-0.01-10.7
	c0-2.7,0.01-5.41,0.01-8.11c-0.01-3.04,0-6.08-0.01-9.11c0-3.93,0.01-7.86,0.01-11.78c-0.02-7.02,0.01-14.05,0-21.07
	c-0.02-6.4,0.01-12.8,0-19.2c-0.01-8.62,0-17.24,0-25.86c-0.01-2.67-0.01-5.33,0-7.99c0-3.07-0.01-6.14,0-9.21
	c0-2.83-0.01-5.67,0-8.49c1.35,2.5,2.67,5.03,4.03,7.53c3.03,5.53,5.79,11.22,8.93,16.69c4.63,8.87,9.25,17.77,14.13,26.51
	l0.63,0.04l-0.18,0.68c2.14,5.16,5.38,9.8,7.6,14.93c0.1-0.17,0.31-0.52,0.42-0.69c0.14,2.39,1.69,4.33,2.73,6.39
	c1.7,2.88,2.95,6.02,4.82,8.78l0.71,0.13l-0.24,0.56c1.25,3.56,3.48,6.69,5.13,10.09c9.95-0.12,19.9,0.15,29.85-0.15
	c1.55-3.26,3.32-6.4,4.99-9.59c1.47-2.78,2.94-5.56,4.43-8.33c-1.79-3.2-3.51-6.44-5.3-9.63c-2.53-4.54-4.99-9.12-7.52-13.66
	c-5.19-9.28-10.11-18.72-15.47-27.89l-0.55,0.06l0.1-0.72c-1.88-4.4-4.51-8.45-6.79-12.65c-3.95-7.54-8.21-14.91-12.26-22.4
	c-1.39-2.58-2.81-5.14-4.22-7.69c-1.62-2.96-3.26-5.91-4.89-8.87c-2.58-4.84-5.33-9.59-7.93-14.42c-0.75-1.39-1.51-2.77-2.25-4.16
	c-1.8-3.26-3.6-6.52-5.42-9.76c-1.7-3.28-3.55-6.48-5.32-9.72c-17.93-0.03-35.86-0.03-53.79,0c0.01,3.33-0.02,6.67,0,10.01
	c0.01,3.4-0.01,6.82-0.02,10.23c0,1.82,0.01,3.66,0.03,5.49c0.01,4.2-0.05,8.4-0.01,12.6c0,2.75-0.01,5.5,0,8.25
	c0,3.01-0.01,6.03,0,9.05c0.03,6.95-0.03,13.89-0.01,20.84c0.01,3.02,0,6.05,0.01,9.07c0,2.76-0.01,5.52,0,8.28
	c-0.04,9.19,0.06,18.38-0.03,27.57C508.51,453.79,508.51,459.76,508.5,465.74z"/>
<linearGradient id="SVGID_39_" gradientUnits="userSpaceOnUse" x1="373.4366" y1="735.463" x2="1152.3289" y2="735.463">
	<stop  offset="0" style="stop-color:#616161"/>
	<stop  offset="0.5335" style="stop-color:#FCFCFC"/>
	<stop  offset="1" style="stop-color:#6F6F6F"/>
</linearGradient>
<path class="st39" d="M703.72,739.45c-2.53-2.79-5.05-5.58-7.56-8.38c-5.57-6.19-11.12-12.4-16.72-18.56
	c-1.13-1.63-3.34-0.63-4.94-0.93c-0.01,15.76,0.02,31.52-0.01,47.28c3.12,0.01,6.25,0.01,9.39,0.01c0.01-9.07-0.02-18.14,0.01-27.21
	c1.96,2.17,3.9,4.37,5.9,6.52c6.33,7.08,12.7,14.14,19.06,21.2c1.42-0.01,2.85-0.01,4.28,0c-0.01-15.75,0-31.51,0-47.26
	c-3.13,0-6.26,0-9.39,0.01C703.74,721.24,703.77,730.34,703.72,739.45z"/>
<linearGradient id="SVGID_40_" gradientUnits="userSpaceOnUse" x1="964.6329" y1="294.2824" x2="964.6329" y2="577.8295">
	<stop  offset="0" style="stop-color:#616161"/>
	<stop  offset="0.5335" style="stop-color:#FCFCFC"/>
	<stop  offset="1" style="stop-color:#6F6F6F"/>
</linearGradient>
<path class="st40" d="M953.39,411.43c7.52,3.89,14.97,7.91,22.5,11.79c-0.02-1.65-0.04-3.29-0.06-4.93
	c-7.52-3.8-14.96-7.74-22.45-11.58C953.37,408.27,953.38,409.85,953.39,411.43z"/>
<linearGradient id="SVGID_41_" gradientUnits="userSpaceOnUse" x1="373.4366" y1="650.2994" x2="1152.3289" y2="650.2994">
	<stop  offset="0" style="stop-color:#616161"/>
	<stop  offset="0.5335" style="stop-color:#FCFCFC"/>
	<stop  offset="1" style="stop-color:#6F6F6F"/>
</linearGradient>
<path class="st41" d="M712.49,616.77c-8.99-0.34-18-0.05-26.99-0.14c0,22.45,0,44.9,0,67.36c6.86,0.01,13.72,0.01,20.59,0.01
	c7.6-0.01,15.2,0.01,22.8,0c-0.01-4.5-0.01-9,0-13.5c-6.85,0.02-13.7-0.08-20.53,0.04c-3.11-0.09-6.21-0.06-9.3,0
	c-0.11-4.48-0.06-8.95-0.05-13.41c7.26-0.01,14.51,0.01,21.77,0c-0.01-4.55-0.01-9.09,0-13.63c-7.25-0.03-14.49-0.02-21.74,0.01
	c-0.07-4.46-0.04-8.92-0.03-13.38c2.97-0.01,5.95-0.01,8.94-0.01c6.97,0.01,13.95,0,20.92,0.01c0.01-4.5,0.01-9.01,0.01-13.51
	C723.42,616.74,717.93,616.41,712.49,616.77z"/>
<linearGradient id="SVGID_42_" gradientUnits="userSpaceOnUse" x1="940.545" y1="294.2824" x2="940.545" y2="577.8295">
	<stop  offset="0" style="stop-color:#616161"/>
	<stop  offset="0.5335" style="stop-color:#FCFCFC"/>
	<stop  offset="1" style="stop-color:#6F6F6F"/>
</linearGradient>
<path class="st42" d="M950.36,410.6c0.14-0.57,0.42-1.73,0.55-2.3c-6.92,2.92-13.73,6.12-20.62,9.12c-0.03,0.64-0.08,1.91-0.11,2.55
	C936.94,416.92,943.65,413.76,950.36,410.6z"/>
<linearGradient id="SVGID_43_" gradientUnits="userSpaceOnUse" x1="940.5" y1="294.2824" x2="940.5" y2="577.8295">
	<stop  offset="0" style="stop-color:#616161"/>
	<stop  offset="0.5335" style="stop-color:#FCFCFC"/>
	<stop  offset="1" style="stop-color:#6F6F6F"/>
</linearGradient>
<path class="st43" d="M930.19,455.01c6.87-3.05,13.64-6.34,20.5-9.44c0.03-0.55,0.09-1.65,0.12-2.2c-6.86,2.95-13.63,6.12-20.48,9.1
	C930.3,453.1,930.22,454.38,930.19,455.01z"/>
<linearGradient id="SVGID_44_" gradientUnits="userSpaceOnUse" x1="964.6462" y1="294.2824" x2="964.6462" y2="577.8295">
	<stop  offset="0" style="stop-color:#616161"/>
	<stop  offset="0.5335" style="stop-color:#FCFCFC"/>
	<stop  offset="1" style="stop-color:#6F6F6F"/>
</linearGradient>
<path class="st44" d="M975.83,427.45c-7.52-3.81-14.95-7.77-22.45-11.58c-0.01,1.55-0.01,3.11,0,4.68c7.52,3.92,15,7.93,22.54,11.83
	C975.88,430.73,975.85,429.08,975.83,427.45z"/>
<linearGradient id="SVGID_45_" gradientUnits="userSpaceOnUse" x1="940.515" y1="294.2824" x2="940.515" y2="577.8295">
	<stop  offset="0" style="stop-color:#616161"/>
	<stop  offset="0.5335" style="stop-color:#FCFCFC"/>
	<stop  offset="1" style="stop-color:#6F6F6F"/>
</linearGradient>
<path class="st45" d="M950.65,419.29c0.04-0.55,0.11-1.66,0.15-2.21c-6.89,3-13.72,6.1-20.57,9.16c0.01,0.63,0.02,1.88,0.02,2.5
	C937.06,425.61,943.83,422.39,950.65,419.29z"/>
<linearGradient id="SVGID_46_" gradientUnits="userSpaceOnUse" x1="670.63" y1="294.2824" x2="670.63" y2="577.8295">
	<stop  offset="0" style="stop-color:#616161"/>
	<stop  offset="0.5335" style="stop-color:#FCFCFC"/>
	<stop  offset="1" style="stop-color:#6F6F6F"/>
</linearGradient>
<path class="st46" d="M646.29,456.22c6.34-11.9,12.67-23.8,19.01-35.7c3.39-6.36,6.71-12.77,10.14-19.11
	c1.14-2.15,2.16-4.37,3.53-6.39c0.16,41.65,0.01,83.3,0.29,124.96c-0.05,3.36,0.01,6.72,0,10.08c-0.03,2.71-0.02,5.42-0.03,8.14
	c-0.07,4.09,0.05,8.18,0.12,12.28c13.32-0.07,26.65,0,39.98-0.04c0.02-4.1,0.08-8.2,0.05-12.29c-0.01-2.76,0-5.52-0.01-8.27
	c-0.01-3.4,0.02-6.8,0-10.19c-0.02-3.83,0.02-7.65,0.02-11.48c-0.02-1.8-0.03-3.6-0.02-5.39c-0.02-3.7,0.02-7.41,0.01-11.1
	c-0.01-1.93-0.02-3.85-0.01-5.76c-0.01-7.09,0.03-14.18,0-21.27c-0.07-8.34,0.12-16.68-0.06-25.01c0.18-6.55,0.01-13.11,0.06-19.66
	c0-2.8,0-5.6,0-8.4c0-3.3-0.01-6.59,0.01-9.89c0.02-6.35-0.03-12.7,0-19.05c0-3.47-0.02-6.95,0-10.42
	c0.01-3.95-0.02-7.89-0.01-11.84c0.01-3.13-0.01-6.25,0-9.38c0-1.42,0-2.83,0.02-4.24c0.01-4.22-0.05-8.43-0.02-12.64
	c0-2.59,0.01-5.18,0.05-7.76c-16.76-0.04-33.52,0.03-50.28-0.04c-1.85,3.13-3.56,6.34-5.34,9.51c-1.93,3.67-4,7.27-5.98,10.91
	c-0.92,1.71-1.85,3.41-2.79,5.1c-1.43,2.64-2.91,5.26-4.34,7.9c-2.01,3.77-4.17,7.46-6.16,11.24c-2.18,3.95-4.37,7.9-6.55,11.85
	c-3.3,6.18-6.8,12.26-10.11,18.44c-2.01,3.63-3.98,7.28-6.03,10.9c1.31,2.46,2.66,4.89,4,7.33
	C632.72,431.73,639.12,444.2,646.29,456.22z"/>
<linearGradient id="SVGID_47_" gradientUnits="userSpaceOnUse" x1="964.63" y1="294.2824" x2="964.63" y2="577.8295">
	<stop  offset="0" style="stop-color:#616161"/>
	<stop  offset="0.5335" style="stop-color:#FCFCFC"/>
	<stop  offset="1" style="stop-color:#6F6F6F"/>
</linearGradient>
<path class="st47" d="M975.77,436.5c-7.54-3.69-14.9-7.72-22.39-11.5c-0.02,1.56-0.02,3.12-0.02,4.69
	c7.52,3.93,15.02,7.89,22.54,11.83C975.85,439.84,975.82,438.17,975.77,436.5z"/>
<linearGradient id="SVGID_48_" gradientUnits="userSpaceOnUse" x1="940.585" y1="294.2824" x2="940.585" y2="577.8295">
	<stop  offset="0" style="stop-color:#616161"/>
	<stop  offset="0.5335" style="stop-color:#FCFCFC"/>
	<stop  offset="1" style="stop-color:#6F6F6F"/>
</linearGradient>
<path class="st48" d="M950.62,427.89c0.08-0.5,0.23-1.52,0.3-2.03c-6.97,2.86-13.78,6.11-20.67,9.14c0,0.63,0.01,1.88,0.02,2.5
	C937.03,434.25,943.98,431.37,950.62,427.89z"/>
<linearGradient id="SVGID_49_" gradientUnits="userSpaceOnUse" x1="373.4366" y1="650.1874" x2="1152.3289" y2="650.1874">
	<stop  offset="0" style="stop-color:#616161"/>
	<stop  offset="0.5335" style="stop-color:#FCFCFC"/>
	<stop  offset="1" style="stop-color:#6F6F6F"/>
</linearGradient>
<path class="st49" d="M784.75,684.03c5.49-0.09,10.98-0.03,16.48-0.07c-6.65-9.14-13.14-18.4-19.77-27.55
	c10.88-4.84,14.89-19.68,8.79-29.67c-2.63-4.11-6.45-7.73-11.31-8.87c-11.07-2.9-22.56-0.67-33.81-1.22
	c-0.01,22.45,0.01,44.9,0,67.35c4.46-0.01,8.93,0.03,13.4-0.03c-0.06-8.53,0-17.06-0.03-25.58c2.65-0.01,5.3-0.02,7.96-0.01
	C772.54,666.94,778.59,675.52,784.75,684.03z M758.49,644.96c0.03-4.94,0.01-9.87,0.02-14.81c5.34,0.07,10.79-0.69,16.04,0.61
	c3.63,0.89,6.13,5.17,4.79,8.74c-1.23,3.36-4.79,5.56-8.31,5.48C766.84,645.05,762.66,644.99,758.49,644.96z"/>
<linearGradient id="SVGID_50_" gradientUnits="userSpaceOnUse" x1="940.465" y1="294.2824" x2="940.465" y2="577.8295">
	<stop  offset="0" style="stop-color:#616161"/>
	<stop  offset="0.5335" style="stop-color:#FCFCFC"/>
	<stop  offset="1" style="stop-color:#6F6F6F"/>
</linearGradient>
<path class="st50" d="M950.73,434.58c-6.78,3.03-13.53,6.12-20.34,9.07c-0.07,0.62-0.2,1.86-0.27,2.48
	c7.04-2.82,13.8-6.28,20.69-9.44C950.79,436.16,950.75,435.11,950.73,434.58z"/>
<linearGradient id="SVGID_51_" gradientUnits="userSpaceOnUse" x1="373.4366" y1="735.489" x2="1152.3289" y2="735.489">
	<stop  offset="0" style="stop-color:#616161"/>
	<stop  offset="0.5335" style="stop-color:#FCFCFC"/>
	<stop  offset="1" style="stop-color:#6F6F6F"/>
</linearGradient>
<path class="st51" d="M727.13,758.87c3.12,0,6.25,0,9.38,0c-0.05-6.18,0.07-12.36-0.07-18.54c5.06-0.15,10.13-0.05,15.2-0.07
	c0-3.18-0.01-6.35-0.01-9.52c-5.04,0.01-10.09,0-15.13,0c0-3.08,0-6.16,0-9.24c6.92,0,13.84,0.01,20.75,0.01
	c0-3.14,0.01-6.27,0.01-9.4c-10.04-0.01-20.08,0.02-30.13,0.02C727.13,727.7,727.14,743.29,727.13,758.87z"/>
<linearGradient id="SVGID_52_" gradientUnits="userSpaceOnUse" x1="964.6267" y1="294.2824" x2="964.6267" y2="577.8295">
	<stop  offset="0" style="stop-color:#616161"/>
	<stop  offset="0.5335" style="stop-color:#FCFCFC"/>
	<stop  offset="1" style="stop-color:#6F6F6F"/>
</linearGradient>
<path class="st52" d="M953.37,434.1c-0.02,1.57-0.02,3.15-0.01,4.73c7.49,3.93,14.98,7.88,22.49,11.79c0-1.6,0.01-3.2,0.05-4.79
	C968.41,441.87,960.87,438.02,953.37,434.1z"/>
<linearGradient id="SVGID_53_" gradientUnits="userSpaceOnUse" x1="373.4366" y1="735.4465" x2="1152.3289" y2="735.4465">
	<stop  offset="0" style="stop-color:#616161"/>
	<stop  offset="0.5335" style="stop-color:#FCFCFC"/>
	<stop  offset="1" style="stop-color:#6F6F6F"/>
</linearGradient>
<path class="st53" d="M797.36,717.52c-2.94-4.06-8.11-5.55-12.92-5.47c-5.78-0.14-11.55,0.17-17.32,0.07
	c-0.01,15.59-0.01,31.17,0,46.76c3.12-0.01,6.25-0.01,9.38,0c-0.01-5.92,0.01-11.83-0.01-17.74c1.99-0.02,3.99-0.02,5.99,0.02
	l-0.23,0.44c4.07,5.72,8.21,11.38,12.17,17.18c3.88,0.15,7.78,0.09,11.68,0.06c-4.55-6.35-9.09-12.71-13.65-19.05
	C800.72,736.07,802.8,724.44,797.36,717.52z M784.13,731.79c-2.55-0.01-5.1-0.05-7.64-0.05c0.01-3.42,0.01-6.83,0.02-10.24
	c2.84,0,5.69-0.05,8.55,0c2.69,0.12,5.69,1.52,6.04,4.51C791.46,729.74,787.51,732.19,784.13,731.79z"/>
<linearGradient id="SVGID_54_" gradientUnits="userSpaceOnUse" x1="964.6" y1="294.2824" x2="964.6" y2="577.8295">
	<stop  offset="0" style="stop-color:#616161"/>
	<stop  offset="0.5335" style="stop-color:#FCFCFC"/>
	<stop  offset="1" style="stop-color:#6F6F6F"/>
</linearGradient>
<path class="st54" d="M975.86,454.94c-7.49-3.9-14.98-7.81-22.49-11.68c-0.02,1.54-0.04,3.09-0.04,4.64
	c7.46,4.07,15.05,7.88,22.54,11.91C975.85,458.18,975.84,456.56,975.86,454.94z"/>
<linearGradient id="SVGID_55_" gradientUnits="userSpaceOnUse" x1="940.54" y1="294.2824" x2="940.54" y2="577.8295">
	<stop  offset="0" style="stop-color:#616161"/>
	<stop  offset="0.5335" style="stop-color:#FCFCFC"/>
	<stop  offset="1" style="stop-color:#6F6F6F"/>
</linearGradient>
<path class="st55" d="M930.28,463.8c6.79-3.16,13.58-6.33,20.39-9.45c0.04-0.55,0.11-1.67,0.15-2.22
	c-6.88,2.98-13.7,6.12-20.56,9.16C930.27,461.91,930.27,463.17,930.28,463.8z"/>
<linearGradient id="SVGID_56_" gradientUnits="userSpaceOnUse" x1="373.4366" y1="735.248" x2="1152.3289" y2="735.248">
	<stop  offset="0" style="stop-color:#616161"/>
	<stop  offset="0.5335" style="stop-color:#FCFCFC"/>
	<stop  offset="1" style="stop-color:#6F6F6F"/>
</linearGradient>
<path class="st56" d="M830.24,711.63c-6.93,15.75-13.89,31.49-20.78,47.25c3.42,0.02,6.86,0,10.29,0.01
	c1.23-2.85,2.5-5.68,3.74-8.52c5.9,0.02,11.81-0.01,17.72,0.01c1.22,2.84,2.48,5.66,3.75,8.48c3.45-0.01,6.91-0.01,10.37,0
	c-7.05-15.74-14.03-31.51-21.05-47.25C832.92,711.6,831.57,711.61,830.24,711.63z M827.59,741c1.58-3.49,3.06-7.03,4.75-10.48
	c1.55,3.49,3.08,6.98,4.65,10.47C833.85,741,830.72,741,827.59,741z"/>
<linearGradient id="SVGID_57_" gradientUnits="userSpaceOnUse" x1="964.615" y1="294.2824" x2="964.615" y2="577.8295">
	<stop  offset="0" style="stop-color:#616161"/>
	<stop  offset="0.5335" style="stop-color:#FCFCFC"/>
	<stop  offset="1" style="stop-color:#6F6F6F"/>
</linearGradient>
<path class="st57" d="M975.87,464.07c-7.51-3.88-14.99-7.81-22.51-11.67c0,1.6,0.02,3.2,0.07,4.81c7.51,3.82,14.94,7.81,22.41,11.73
	C975.83,467.31,975.84,465.69,975.87,464.07z"/>
<linearGradient id="SVGID_58_" gradientUnits="userSpaceOnUse" x1="940.62" y1="294.2824" x2="940.62" y2="577.8295">
	<stop  offset="0" style="stop-color:#616161"/>
	<stop  offset="0.5335" style="stop-color:#FCFCFC"/>
	<stop  offset="1" style="stop-color:#6F6F6F"/>
</linearGradient>
<path class="st58" d="M930.26,470.08c0,0.62-0.01,1.87-0.02,2.5c6.71-3.18,13.53-6.13,20.16-9.45c0.15-0.54,0.45-1.64,0.6-2.19
	C943.96,463.7,937.17,467.04,930.26,470.08z"/>
<linearGradient id="SVGID_59_" gradientUnits="userSpaceOnUse" x1="940.565" y1="294.2824" x2="940.565" y2="577.8295">
	<stop  offset="0" style="stop-color:#616161"/>
	<stop  offset="0.5335" style="stop-color:#FCFCFC"/>
	<stop  offset="1" style="stop-color:#6F6F6F"/>
</linearGradient>
<path class="st59" d="M930.17,481.18c6.92-2.88,13.73-6.09,20.43-9.43c0.09-0.49,0.27-1.45,0.36-1.94
	c-7.03,2.53-13.65,6.08-20.57,8.9C930.34,479.33,930.22,480.57,930.17,481.18z"/>
<linearGradient id="SVGID_60_" gradientUnits="userSpaceOnUse" x1="373.4366" y1="650.305" x2="1152.3289" y2="650.305">
	<stop  offset="0" style="stop-color:#616161"/>
	<stop  offset="0.5335" style="stop-color:#FCFCFC"/>
	<stop  offset="1" style="stop-color:#6F6F6F"/>
</linearGradient>
<path class="st60" d="M620.16,616.62c-0.01,4.49-0.01,9,0,13.5c6.19,0.01,12.39,0,18.59,0c0,17.96,0,35.91,0,53.87
	c4.5,0.01,9,0.01,13.5,0.01c0.01-17.96,0.01-35.91,0-53.87c6.17,0,12.34-0.01,18.51,0c0.03-4.51,0.01-9.02,0.01-13.52
	C653.9,616.62,637.03,616.64,620.16,616.62z"/>
<linearGradient id="SVGID_61_" gradientUnits="userSpaceOnUse" x1="373.4366" y1="649.9319" x2="1152.3289" y2="649.9319">
	<stop  offset="0" style="stop-color:#616161"/>
	<stop  offset="0.5335" style="stop-color:#FCFCFC"/>
	<stop  offset="1" style="stop-color:#6F6F6F"/>
</linearGradient>
<path class="st61" d="M434.91,653.58c0.62,1.63,1.27,3.24,2.01,4.82c1.8,2.3,4.05,4.2,6.09,6.3c4.55-4.6,9.15-9.14,13.74-13.71
	l-0.06-0.16c3.68-3.16,6.89-6.79,10.43-10.08c0.05,14.41,0.01,28.82,0.01,43.23c4.47,0,8.95,0.07,13.42-0.03
	c-0.04-22.64-0.09-45.29,0.02-67.93c-2.49-0.18-4.98-0.2-7.47-0.1c-6.41,6.27-12.65,12.72-19.12,18.93
	c-3.72,3.6-7.26,7.37-11.03,10.91c-2.48-2.44-4.94-4.89-7.4-7.35c-1,1.73-1.72,3.71-0.51,5.57
	C436.7,647.03,436.51,650.55,434.91,653.58z"/>
<linearGradient id="SVGID_62_" gradientUnits="userSpaceOnUse" x1="373.4366" y1="650.3189" x2="1152.3289" y2="650.3189">
	<stop  offset="0" style="stop-color:#616161"/>
	<stop  offset="0.5335" style="stop-color:#FCFCFC"/>
	<stop  offset="1" style="stop-color:#6F6F6F"/>
</linearGradient>
<path class="st62" d="M1047.03,683.98c4.3,0.15,8.62,0.18,12.93,0.13c5.62-0.17,11.34-0.67,16.54-3
	c8.41-4.05,14.63-11.98,16.87-21.01c3.96-14.94-1.48-33.51-16.21-40.41c-4.49-2.04-9.38-2.87-14.27-3.05
	c-4.94-0.16-9.88-0.19-14.81-0.02c-3.2,0.05-6.4,0.05-9.59-0.02c-0.02,22.47,0,44.93,0.01,67.4
	C1041.33,683.91,1044.18,683.91,1047.03,683.98z M1051.89,630.13c3.92-0.18,7.88-0.29,11.79,0.32c5.15,0.73,10.21,2.95,13.51,7.11
	c5.25,8.11,5.13,19.49-1.17,27c-3.88,3.93-9.35,5.53-14.7,6.01c-3.11,0.21-6.23,0.13-9.32,0.04
	C1051.73,657.12,1051.93,643.62,1051.89,630.13z"/>
<linearGradient id="SVGID_63_" gradientUnits="userSpaceOnUse" x1="953.0554" y1="294.2824" x2="953.0554" y2="577.8295">
	<stop  offset="0" style="stop-color:#616161"/>
	<stop  offset="0.5335" style="stop-color:#FCFCFC"/>
	<stop  offset="1" style="stop-color:#6F6F6F"/>
</linearGradient>
<path class="st63" d="M975.83,552.23c0.07-6.51,0.38-13.03-0.01-19.53c0.16-7.42,0.51-14.88-0.17-22.27
	c0.22-9.37,0.15-18.74,0.21-28.1c-7.53-3.83-14.98-7.83-22.51-11.65c-0.01,3.56,0,7.12,0.01,10.68c-0.65,0-1.94,0-2.59,0.01
	c-0.01-2.11-0.01-4.2,0-6.29c-6.86,3.17-13.72,6.35-20.55,9.58c0.01,1.54,0.03,3.09,0.04,4.65c-0.03,2.94,0,5.89-0.01,8.85
	c-0.03,2.97,0.01,5.95,0,8.92c-0.03,2.67-0.01,5.34,0,8.02c-0.01,2.65,0.02,5.31-0.03,7.97c-0.01,1.19,0.03,2.37,0.1,3.56
	c-0.57,8.48-0.03,16.99-0.06,25.48C945.44,552.41,960.64,552.17,975.83,552.23z"/>
<linearGradient id="SVGID_64_" gradientUnits="userSpaceOnUse" x1="373.4366" y1="650.2205" x2="1152.3289" y2="650.2205">
	<stop  offset="0" style="stop-color:#616161"/>
	<stop  offset="0.5335" style="stop-color:#FCFCFC"/>
	<stop  offset="1" style="stop-color:#6F6F6F"/>
</linearGradient>
<path class="st64" d="M962.34,615.94c0.02,22.68,0.02,45.36,0,68.04c4.46,0.04,8.93,0.01,13.41-0.02
	c-0.09-12.84,0.09-25.68-0.09-38.52l0.85-0.22c5.42,6.45,11.25,12.56,16.86,18.84c2.35,2.59,4.52,5.36,7.08,7.76
	c3.65,4.42,7.6,8.58,11.45,12.84c2.01-0.04,4.03-0.04,6.06-0.04c0.06-22.66-0.04-45.32,0.04-67.98c-4.46-0.03-8.92-0.04-13.38-0.02
	c-0.21,13.16,0.32,26.37-0.25,39.51c-2.92-3.65-6.16-7.02-9.28-10.49c-5.49-5.95-10.63-12.25-16.38-17.95l-0.03-0.32
	c-3.05-3.33-6.05-6.72-9.05-10.09C967.98,614.87,964.75,616.14,962.34,615.94z"/>
<linearGradient id="SVGID_65_" gradientUnits="userSpaceOnUse" x1="373.4366" y1="734.51" x2="1152.3289" y2="734.51">
	<stop  offset="0" style="stop-color:#616161"/>
	<stop  offset="0.5335" style="stop-color:#FCFCFC"/>
	<stop  offset="1" style="stop-color:#6F6F6F"/>
</linearGradient>
<path class="st65" d="M1063.93,735.29c-7.67,0.24-15.27-0.83-22.93-0.79c-16.55-0.41-33.1-1.07-49.65-1.41
	c-6.99-0.12-13.97-0.4-20.95-0.54c-5.18-0.09-10.36-0.31-15.53-0.41c-5.7-0.09-11.39-0.36-17.08-0.45c-3.81-0.1-7.61-0.22-11.41-0.3
	c-5.1-0.09-10.19-0.32-15.28-0.41c-13.79-0.36-27.58-0.72-41.36-1.12c0,3.1-0.01,6.2,0,9.3c16.15-0.36,32.32-0.42,48.48-0.8
	c2.02,0.08,4.05,0.01,6.09,0.06c4.79-0.23,9.58-0.14,14.37-0.3c5.07-0.01,10.14-0.15,15.22-0.22c5.5,0.04,11-0.22,16.51-0.19
	c6.21-0.08,12.42-0.23,18.64-0.27c25.69-0.3,51.38-0.94,77.07-1.17c9.28-0.89,18.61-0.52,27.92-0.75
	C1084,735.18,1073.96,735.33,1063.93,735.29z"/>
</svg>
